REM DIRINDEX 1\2,1\3,1\4,1\5
REM DIRNAME "folder01","folder02","folder03","folder04","folder05"
TITLE ""
FILE "1Q_t_0029-0038.mp3" MP3
  TRACK 01 AUDIO
    TITLE "3:cjc172_0995"
    INDEX 01 00:00:00
  TRACK 02 AUDIO
    TITLE "0:"
    INDEX 01 00:01:12
  TRACK 03 AUDIO
    TITLE "4:cjc172_0996"
    INDEX 01 00:01:27
  TRACK 04 AUDIO
    TITLE "0:"
    INDEX 01 00:02:62
  TRACK 05 AUDIO
    TITLE "5:cjc172_0997"
    INDEX 01 00:03:03
  TRACK 06 AUDIO
    TITLE "0:"
    INDEX 01 00:11:32
  TRACK 07 AUDIO
    TITLE "3:cjc172_0998"
    INDEX 01 00:12:12
  TRACK 08 AUDIO
    TITLE "0:"
    INDEX 01 00:13:48
  TRACK 09 AUDIO
    TITLE "4:cjc172_0999"
    INDEX 01 00:13:64
  TRACK 10 AUDIO
    TITLE "0:"
    INDEX 01 00:15:33
  TRACK 11 AUDIO
    TITLE "5:cjc172_1000"
    INDEX 01 00:15:49
  TRACK 12 AUDIO
    TITLE "0:"
    INDEX 01 00:22:02
  TRACK 13 AUDIO
    TITLE "3:cjc172_1001"
    INDEX 01 00:22:55
  TRACK 14 AUDIO
    TITLE "0:"
    INDEX 01 00:23:66
  TRACK 15 AUDIO
    TITLE "4:cjc172_1002"
    INDEX 01 00:24:07
  TRACK 16 AUDIO
    TITLE "0:"
    INDEX 01 00:28:20
  TRACK 17 AUDIO
    TITLE "5:cjc172_1003"
    INDEX 01 00:28:34
  TRACK 18 AUDIO
    TITLE "0:"
    INDEX 01 00:33:23
  TRACK 19 AUDIO
    TITLE "3:cjc172_1004"
    INDEX 01 00:34:01
  TRACK 20 AUDIO
    TITLE "0:"
    INDEX 01 00:35:13
  TRACK 21 AUDIO
    TITLE "4:cjc172_1005"
    INDEX 01 00:35:30
  TRACK 22 AUDIO
    TITLE "0:"
    INDEX 01 00:36:57
  TRACK 23 AUDIO
    TITLE "5:cjc172_1006"
    INDEX 01 00:36:71
  TRACK 24 AUDIO
    TITLE "0:"
    INDEX 01 00:42:60
  TRACK 25 AUDIO
    TITLE "3:cjc172_1007"
    INDEX 01 00:43:36
  TRACK 26 AUDIO
    TITLE "0:"
    INDEX 01 00:44:33
  TRACK 27 AUDIO
    TITLE "4:cjc172_1008"
    INDEX 01 00:44:49
  TRACK 28 AUDIO
    TITLE "0:"
    INDEX 01 00:48:23
  TRACK 29 AUDIO
    TITLE "5:cjc172_1009"
    INDEX 01 00:48:37
  TRACK 30 AUDIO
    TITLE "0:"
    INDEX 01 00:53:12
  TRACK 31 AUDIO
    TITLE "3:cjc172_1010"
    INDEX 01 00:53:65
  TRACK 32 AUDIO
    TITLE "0:"
    INDEX 01 00:54:73
  TRACK 33 AUDIO
    TITLE "4:cjc172_1011"
    INDEX 01 00:55:13
  TRACK 34 AUDIO
    TITLE "0:"
    INDEX 01 00:57:30
  TRACK 35 AUDIO
    TITLE "5:cjc172_1012"
    INDEX 01 00:57:46
  TRACK 36 AUDIO
    TITLE "0:"
    INDEX 01 01:01:53
  TRACK 37 AUDIO
    TITLE "3:cjc172_1013"
    INDEX 01 01:02:33
  TRACK 38 AUDIO
    TITLE "0:"
    INDEX 01 01:03:30
  TRACK 39 AUDIO
    TITLE "4:cjc172_1014"
    INDEX 01 01:03:50
  TRACK 40 AUDIO
    TITLE "0:"
    INDEX 01 01:04:59
  TRACK 41 AUDIO
    TITLE "5:cjc172_1015"
    INDEX 01 01:04:75
  TRACK 42 AUDIO
    TITLE "0:"
    INDEX 01 01:09:11
  TRACK 43 AUDIO
    TITLE "3:cjc172_1016"
    INDEX 01 01:09:62
  TRACK 44 AUDIO
    TITLE "0:"
    INDEX 01 01:11:10
  TRACK 45 AUDIO
    TITLE "4:cjc172_1017"
    INDEX 01 01:11:30
  TRACK 46 AUDIO
    TITLE "0:"
    INDEX 01 01:14:67
  TRACK 47 AUDIO
    TITLE "5:cjc172_1018"
    INDEX 01 01:15:08
  TRACK 48 AUDIO
    TITLE "0:"
    INDEX 01 01:21:01
  TRACK 49 AUDIO
    TITLE "3:cjc172_1019"
    INDEX 01 01:21:58
  TRACK 50 AUDIO
    TITLE "0:"
    INDEX 01 01:22:63
  TRACK 51 AUDIO
    TITLE "4:cjc172_1020"
    INDEX 01 01:23:04
  TRACK 52 AUDIO
    TITLE "0:"
    INDEX 01 01:26:08
  TRACK 53 AUDIO
    TITLE "5:cjc172_1021"
    INDEX 01 01:26:22
  TRACK 54 AUDIO
    TITLE "0:"
    INDEX 01 01:31:35
  TRACK 55 AUDIO
    TITLE "3:cjc172_1022"
    INDEX 01 01:32:14
  TRACK 56 AUDIO
    TITLE "0:"
    INDEX 01 01:33:26
  TRACK 57 AUDIO
    TITLE "4:cjc172_1023"
    INDEX 01 01:33:41
  TRACK 58 AUDIO
    TITLE "0:"
    INDEX 01 01:36:36
  TRACK 59 AUDIO
    TITLE "5:cjc172_1024"
    INDEX 01 01:36:49
  TRACK 60 AUDIO
    TITLE "0:"
    INDEX 01 01:44:18
